<?xml version="1.0" standalone="no"?><!DOCTYPE svg PUBLIC "-//W3C//DTD SVG 1.1//EN" "http://www.w3.org/Graphics/SVG/1.1/DTD/svg11.dtd"><svg t="1635149472637" class="icon" viewBox="0 0 1024 1024" version="1.1" xmlns="http://www.w3.org/2000/svg" p-id="1787" xmlns:xlink="http://www.w3.org/1999/xlink" width="200" height="200"><defs><style type="text/css"></style></defs><path d="M514 118.6c-217.6 0-394.6 176.9-394.6 394.6s177 394.5 394.6 394.5 394.6-176.9 394.6-394.6-177-394.5-394.6-394.5z m0 746.4c-194 0-351.8-157.8-351.8-351.8S320 161.4 514 161.4s351.8 157.8 351.8 351.8S708 865 514 865z" p-id="1788" fill="#ffffff"></path><path d="M616.3 326l-30.2-30.2-154.7 154.7c-16.7 16.7-26 39-26 62.7 0 23.7 9.2 45.9 26 62.7l154.7 154.7 30.2-30.2-154.7-154.7c-8.7-8.7-13.5-20.2-13.5-32.5s4.8-23.8 13.5-32.5L616.3 326z" p-id="1789" fill="#ffffff"></path></svg>